<?xml version="1.0" encoding="UTF-8" standalone="no"?>
<svg
   width="1420"
   height="240"
   viewBox="0 0 1420 240"
   fill="none"
   version="1.1"
   id="svg9"
   sodipodi:docname="logo-text-on-light.svg"
   inkscape:version="1.4.3 (0d15f75, 2025-12-25)"
   xml:space="preserve"
   inkscape:export-filename="logo-text-on-dark.png"
   inkscape:export-xdpi="96"
   inkscape:export-ydpi="96"
   xmlns:inkscape="http://www.inkscape.org/namespaces/inkscape"
   xmlns:sodipodi="http://sodipodi.sourceforge.net/DTD/sodipodi-0.dtd"
   xmlns="http://www.w3.org/2000/svg"
   xmlns:svg="http://www.w3.org/2000/svg"><sodipodi:namedview
     id="namedview9"
     pagecolor="#000000"
     bordercolor="#000000"
     borderopacity="0.25"
     inkscape:showpageshadow="2"
     inkscape:pageopacity="0.0"
     inkscape:pagecheckerboard="0"
     inkscape:deskcolor="#d1d1d1"
     showgrid="false"
     inkscape:zoom="0.71362114"
     inkscape:cx="765.81252"
     inkscape:cy="36.433898"
     inkscape:window-width="1920"
     inkscape:window-height="1021"
     inkscape:window-x="1920"
     inkscape:window-y="31"
     inkscape:window-maximized="1"
     inkscape:current-layer="g2" /><defs
     id="defs9" /><g
     id="g2"><path
       d="m 240,219 c 0,8.24 -6.76,15 -15,15 H 15 C 6.76,234 0,227.24 0,219 v -90 c 0,-8.24 4.78,-19.78 10.6,-25.6 L 109.4,4.61999 c 5.84,-5.84 15.38,-5.84 21.22,0 L 229.4,103.4 c 5.84,5.84 10.6,17.36 10.6,25.6 z"
       fill="#18bcf2"
       id="path1" /><path
       style="font-weight:600;font-size:182.625px;font-family:Biotif;-inkscape-font-specification:'Biotif Semi-Bold';fill:#ffffff;stroke:#ffffff;stroke-width:1.10459"
       d="m 440.7471,160.20741 v 21.40137 H 357.99515 V 48.296097 h 82.75195 v 21.579712 h -60.10217 v 34.509701 h 53.68176 v 20.06379 h -53.68176 v 35.75811 z M 505.48624,45.888443 q 18.28033,0 30.40777,8.917236 12.12744,8.917237 14.89179,23.809021 l -21.3122,5.796204 q -1.78344,-8.560547 -8.3822,-13.19751 -6.50958,-4.636963 -16.1402,-4.636963 -10.34399,0 -16.40771,4.993653 -6.06372,4.90448 -6.06372,13.108337 0,12.929993 16.05102,16.764409 l 21.75806,5.43951 q 16.85358,4.36945 25.23578,13.91089 8.3822,9.45227 8.3822,23.36316 0,17.83447 -12.92999,28.89184 -12.93,10.9682 -34.59888,10.9682 -19.52875,0 -32.99377,-9.18475 -13.28669,-9.54144 -15.69434,-25.14661 l 21.31219,-5.52868 q 1.15925,8.82806 8.7389,13.82171 7.66882,4.99366 19.43957,4.99366 11.32489,0 17.7453,-4.72614 6.50958,-4.81531 6.50958,-13.01916 0,-12.84082 -16.05102,-16.94275 l -21.75806,-5.26117 q -16.7644,-3.83441 -25.23578,-13.5542 -8.3822,-9.808962 -8.3822,-23.898195 0,-17.656128 12.48413,-28.624329 12.57331,-11.057373 32.99378,-11.057373 z m 166.4848,45.834595 q 0,19.617922 -11.9491,31.745362 -11.85992,12.12744 -32.01288,12.12744 h -29.96191 v 46.01294 H 575.39737 V 48.296097 h 22.64978 30.14026 q 20.3313,0 32.01288,11.770752 11.77075,11.681579 11.77075,31.656189 z m -23.71985,-0.535034 q 0,-10.076478 -6.33124,-16.318543 -6.24206,-6.331238 -17.7453,-6.331238 h -26.1275 V 115.7104 h 25.77081 q 11.77075,0 18.10199,-6.68792 6.33124,-6.68793 6.33124,-17.834476 z m 135.45282,0.891723 q -3.65607,-11.414062 -12.75165,-17.7453 -9.09558,-6.331238 -21.75805,-6.331238 -18.63703,0 -29.78357,12.929993 -11.14655,12.84082 -11.14655,33.974668 0,21.40137 11.23572,34.06384 11.23572,12.57331 29.51605,12.57331 12.92999,0 22.9173,-6.33124 9.9873,-6.33124 13.82171,-16.67523 l 21.3122,9.09558 q -6.86627,17.03192 -22.47144,26.66254 -15.51599,9.54144 -35.75811,9.54144 -18.90455,0 -33.52881,-8.47138 -14.62427,-8.56054 -22.73896,-24.07653 -8.02551,-15.60517 -8.02551,-35.93647 0,-15.33764 4.72614,-28.267635 4.72613,-13.019165 13.10833,-22.025574 8.47138,-9.095581 20.42048,-14.089233 12.03826,-5.082825 26.21667,-5.082825 21.04468,0 36.29315,10.789856 15.24848,10.789856 20.15296,28.178467 z m 83.19781,-3.03186 q 20.68799,0 33.70716,13.286683 13.01916,13.28668 13.01916,34.15301 0,20.77716 -13.01916,34.06385 -13.01917,13.28668 -33.70716,13.28668 -20.86633,0 -33.88549,-13.28668 -13.01917,-13.28669 -13.01917,-34.06385 0,-20.9555 13.01917,-34.15301 13.01916,-13.286683 33.88549,-13.286683 z m 0,75.350643 q 11.05738,0 17.92365,-7.75799 6.95544,-7.84717 6.95544,-20.3313 0,-12.48413 -6.95544,-20.15295 -6.86627,-7.758 -17.92365,-7.758 -11.32489,0 -18.28033,7.758 -6.95544,7.66882 -6.95544,20.15295 0,12.48413 6.95544,20.3313 6.95544,7.75799 18.28033,7.75799 z m 202.59958,-40.12756 v 57.33783 h -20.9555 v -54.03845 q 0,-9.3631 -4.8153,-14.62427 -4.8153,-5.26117 -13.1083,-5.26117 -8.8281,0 -14.0892,5.7962 -5.2612,5.70704 -5.2612,16.05103 v 52.07666 h -21.22304 v -54.03845 q 0,-9.3631 -4.72614,-14.62427 -4.63696,-5.26117 -12.92999,-5.26117 -8.82806,0 -14.17841,5.7962 -5.35034,5.70704 -5.35034,16.05103 v 52.07666 H 931.28427 V 91.544693 h 20.06378 l 0.71338,8.649717 q 7.84717,-11.503233 25.59247,-11.503233 10.34399,0 17.92365,4.280274 7.57965,4.280273 11.50325,12.484129 3.2994,-7.847166 10.879,-12.305784 7.6688,-4.458619 18.1912,-4.458619 15.3376,0 24.344,9.452271 9.0064,9.452272 9.0064,26.127502 z m 74.0131,59.74548 q -9.8981,0 -18.1912,-3.74524 -8.293,-3.83441 -12.6624,-10.34399 v 53.32507 h -20.8664 V 91.544693 h 19.3504 l 0.8918,11.324887 q 4.0127,-6.331235 12.1274,-10.165646 8.2039,-3.834412 18.5478,-3.834412 20.3313,0 32.3696,12.751648 12.0383,12.75165 12.0383,35.40143 0,21.57971 -12.395,34.33136 -12.3058,12.66247 -31.2103,12.66247 z m 15.0701,-27.46508 q 7.223,-7.66883 7.223,-20.24213 0,-12.5733 -7.223,-20.24213 -7.2229,-7.66882 -18.9045,-7.66882 -11.6816,0 -18.9046,7.66882 -7.2229,7.66883 -7.2229,20.24213 0,12.5733 7.2229,20.24213 7.223,7.66882 18.9046,7.66882 11.6816,0 18.9045,-7.66882 z m 88.1915,-67.503483 q 20.688,0 33.7071,13.286683 13.0192,13.28668 13.0192,34.15301 0,20.77716 -13.0192,34.06385 -13.0191,13.28668 -33.7071,13.28668 -20.8663,0 -33.8855,-13.28668 -13.0192,-13.28669 -13.0192,-34.06385 0,-20.9555 13.0192,-34.15301 13.0192,-13.286683 33.8855,-13.286683 z m 0,75.350643 q 11.0574,0 17.9236,-7.75799 6.9555,-7.84717 6.9555,-20.3313 0,-12.48413 -6.9555,-20.15295 -6.8662,-7.758 -17.9236,-7.758 -11.3249,0 -18.2803,7.758 -6.9555,7.66882 -6.9555,20.15295 0,12.48413 6.9555,20.3313 6.9554,7.75799 18.2803,7.75799 z m 95.2361,2.22931 q 6.6879,0 10.5223,-2.586 3.9236,-2.67517 3.9236,-7.84716 0,-7.22297 -9.7198,-9.63062 l -12.3949,-3.29938 q -25.5925,-6.95544 -25.5925,-26.30584 0,-12.39496 9.0064,-20.24213 9.0064,-7.847168 24.2549,-7.847168 13.6433,0 22.8281,6.242066 9.2739,6.242062 11.3249,17.121092 l -19.3504,4.54779 q -0.6242,-4.90448 -4.5478,-7.75799 -3.8344,-2.85352 -9.5414,-2.85352 -5.7962,0 -9.3631,2.94269 -3.5669,2.85351 -3.5669,7.49048 0,3.74524 2.6751,6.24206 2.6752,2.49683 8.2931,4.01276 l 12.2166,3.03186 q 12.2166,3.29938 18.637,9.9873 6.4204,6.68793 6.4204,16.49689 0,12.66248 -9.5414,20.15296 -9.5415,7.49047 -26.3059,7.49047 -15.516,0 -24.8791,-6.7771 -9.3631,-6.86627 -11.0573,-18.45868 l 19.7071,-3.47772 q 0.535,5.35034 4.7261,8.3822 4.2803,2.94269 11.3249,2.94269 z m 138.2171,-22.11474 h -69.0194 q 1.0701,10.16565 7.6689,15.51599 6.5987,5.35034 16.7644,5.35034 16.4968,0 23.0956,-13.73254 l 18.0128,7.13378 q -5.0828,11.85993 -16.051,18.54786 -10.879,6.68792 -25.0574,6.68792 -19.9747,0 -32.4588,-13.01916 -12.3949,-13.10834 -12.3949,-34.33136 0,-21.22302 12.4841,-34.50971 12.5733,-13.286678 32.8154,-13.286678 19.8855,0 32.0129,13.108338 12.1274,13.10834 12.1274,34.5097 z m -68.6627,-15.1593 h 46.7263 q -0.6242,-10.96821 -6.6879,-16.67524 -5.9745,-5.7962 -16.1402,-5.7962 -10.0765,0 -16.4077,5.88538 -6.3312,5.7962 -7.4905,16.58606 z"
       id="text9"
       transform="scale(0.95516732,1.046937)"
       aria-label="ESPCompose" /><g
       style="fill:none"
       id="g1"
       transform="matrix(0.47080628,0,0,0.47080628,-1.1749018,21.867742)"><g
         stroke="#ffffff"
         stroke-width="18"
         stroke-linecap="round"
         stroke-linejoin="round"
         id="g3"><ellipse
           cx="256"
           cy="256"
           rx="170"
           ry="66"
           id="ellipse1" /><ellipse
           cx="256"
           cy="256"
           rx="170"
           ry="66"
           transform="rotate(60,256,256)"
           id="ellipse2" /><ellipse
           cx="256"
           cy="256"
           rx="170"
           ry="66"
           transform="rotate(-60,256,256)"
           id="ellipse3" /></g></g></g></svg>
