<?xml version="1.0" encoding="UTF-8" standalone="no"?>
<svg
   width="240"
   height="240"
   viewBox="0 0 240 240"
   fill="none"
   version="1.1"
   id="svg9"
   sodipodi:docname="logo-text-on-light.svg"
   inkscape:version="1.4.3 (0d15f75, 2025-12-25)"
   xml:space="preserve"
   inkscape:export-filename="logo.png"
   inkscape:export-xdpi="96"
   inkscape:export-ydpi="96"
   xmlns:inkscape="http://www.inkscape.org/namespaces/inkscape"
   xmlns:sodipodi="http://sodipodi.sourceforge.net/DTD/sodipodi-0.dtd"
   xmlns="http://www.w3.org/2000/svg"
   xmlns:svg="http://www.w3.org/2000/svg"><sodipodi:namedview
     id="namedview9"
     pagecolor="#000000"
     bordercolor="#000000"
     borderopacity="0.25"
     inkscape:showpageshadow="2"
     inkscape:pageopacity="0.0"
     inkscape:pagecheckerboard="0"
     inkscape:deskcolor="#d1d1d1"
     showgrid="false"
     inkscape:zoom="0.71362114"
     inkscape:cx="765.81252"
     inkscape:cy="36.433898"
     inkscape:window-width="1920"
     inkscape:window-height="1021"
     inkscape:window-x="1920"
     inkscape:window-y="31"
     inkscape:window-maximized="1"
     inkscape:current-layer="g2" /><defs
     id="defs9" /><g
     id="g2"><path
       d="m 240,219 c 0,8.24 -6.76,15 -15,15 H 15 C 6.76,234 0,227.24 0,219 v -90 c 0,-8.24 4.78,-19.78 10.6,-25.6 L 109.4,4.61999 c 5.84,-5.84 15.38,-5.84 21.22,0 L 229.4,103.4 c 5.84,5.84 10.6,17.36 10.6,25.6 z"
       fill="#18bcf2"
       id="path1" /><g
       style="fill:none"
       id="g1"
       transform="matrix(0.47080628,0,0,0.47080628,-1.1749018,21.867742)"><g
         stroke="#ffffff"
         stroke-width="18"
         stroke-linecap="round"
         stroke-linejoin="round"
         id="g3"><ellipse
           cx="256"
           cy="256"
           rx="170"
           ry="66"
           id="ellipse1" /><ellipse
           cx="256"
           cy="256"
           rx="170"
           ry="66"
           transform="rotate(60,256,256)"
           id="ellipse2" /><ellipse
           cx="256"
           cy="256"
           rx="170"
           ry="66"
           transform="rotate(-60,256,256)"
           id="ellipse3" /></g></g></g></svg>
